HIERARCHY
ROOT Hips
{
	OFFSET 0.00000 0.00000 0.00000
	CHANNELS 6 Xposition Yposition Zposition Zrotation Yrotation Xrotation 
	JOINT LHipJoint
	{
		OFFSET 0 0 0
		CHANNELS 3 Zrotation Yrotation Xrotation
		JOINT LeftUpLeg
		{
			OFFSET 1.56857 -1.73443 1.15205
			CHANNELS 3 Zrotation Yrotation Xrotation
			JOINT LeftLeg
			{
				OFFSET 2.39362 -6.57643 0.00000
				CHANNELS 3 Zrotation Yrotation Xrotation
				JOINT LeftFoot
				{
					OFFSET 2.50952 -6.89485 0.00000
					CHANNELS 3 Zrotation Yrotation Xrotation
					JOINT LeftToeBase
					{
						OFFSET 0.17171 -0.47178 1.88682
						CHANNELS 3 Zrotation Yrotation Xrotation
						End Site
						{
							OFFSET 0.00000 -0.00000 0.98146
						}
					}
				}
			}
		}
	}
	JOINT RHipJoint
	{
		OFFSET 0 0 0
		CHANNELS 3 Zrotation Yrotation Xrotation
		JOINT RightUpLeg
		{
			OFFSET -1.28153 -1.73443 1.15205
			CHANNELS 3 Zrotation Yrotation Xrotation
			JOINT RightLeg
			{
				OFFSET -2.26861 -6.23296 0.00000
				CHANNELS 3 Zrotation Yrotation Xrotation
				JOINT RightFoot
				{
					OFFSET -2.54143 -6.98254 0.00000
					CHANNELS 3 Zrotation Yrotation Xrotation
					JOINT RightToeBase
					{
						OFFSET -0.23309 -0.64041 1.93119
						CHANNELS 3 Zrotation Yrotation Xrotation
						End Site
						{
							OFFSET -0.00000 -0.00000 1.02013
						}
					}
				}
			}
		}
	}
	JOINT LowerBack
	{
		OFFSET 0 0 0
		CHANNELS 3 Zrotation Yrotation Xrotation
		JOINT Spine
		{
			OFFSET -0.07096 2.10460 -0.27878
			CHANNELS 3 Zrotation Yrotation Xrotation
			JOINT Spine1
			{
				OFFSET -0.00826 2.13662 -0.08279
				CHANNELS 3 Zrotation Yrotation Xrotation
				JOINT Neck
				{
					OFFSET 0 0 0
					CHANNELS 3 Zrotation Yrotation Xrotation
					JOINT Neck1
					{
						OFFSET 0.03239 1.77799 0.24435
						CHANNELS 3 Zrotation Yrotation Xrotation
						JOINT Head
						{
							OFFSET 0.01026 1.74194 -0.49664
							CHANNELS 3 Zrotation Yrotation Xrotation
							End Site
							{
								OFFSET 0.00170 1.83057 -0.19653
							}
						}
					}
				}
				JOINT LeftShoulder
				{
					OFFSET 0 0 0
					CHANNELS 3 Zrotation Yrotation Xrotation
					JOINT LeftArm
					{
						OFFSET 3.19178 1.35907 -0.31412
						CHANNELS 3 Zrotation Yrotation Xrotation
						JOINT LeftForeArm
						{
							OFFSET 4.85247 -0.00000 -0.00000
							CHANNELS 3 Zrotation Yrotation Xrotation
							JOINT LeftHand
							{
								OFFSET 3.55584 -0.00000 0.00000
								CHANNELS 3 Zrotation Yrotation Xrotation
								JOINT LeftFingerBase
								{
									OFFSET 0 0 0
									CHANNELS 3 Zrotation Yrotation Xrotation
									JOINT LeftHandIndex1
									{
										OFFSET 0.69320 -0.00000 0.00000
										CHANNELS 3 Zrotation Yrotation Xrotation
										End Site
										{
											OFFSET 0.55888 -0.00000 0.00000
										}
									}
								}
								JOINT LThumb
								{
									OFFSET 0 0 0
									CHANNELS 3 Zrotation Yrotation Xrotation
									End Site
									{
										OFFSET 0.56741 -0.00000 0.56741
									}
								}
							}
						}
					}
				}
				JOINT RightShoulder
				{
					OFFSET 0 0 0
					CHANNELS 3 Zrotation Yrotation Xrotation
					JOINT RightArm
					{
						OFFSET -3.28999 1.24191 -0.26899
						CHANNELS 3 Zrotation Yrotation Xrotation
						JOINT RightForeArm
						{
							OFFSET -4.64462 -0.00000 0.00000
							CHANNELS 3 Zrotation Yrotation Xrotation
							JOINT RightHand
							{
								OFFSET -3.40703 -0.00000 0.00000
								CHANNELS 3 Zrotation Yrotation Xrotation
								JOINT RightFingerBase
								{
									OFFSET 0 0 0
									CHANNELS 3 Zrotation Yrotation Xrotation
									JOINT RightHandIndex1
									{
										OFFSET -0.61958 -0.00000 0.00000
										CHANNELS 3 Zrotation Yrotation Xrotation
										End Site
										{
											OFFSET -0.49952 -0.00000 0.00000
										}
									}
								}
								JOINT RThumb
								{
									OFFSET 0 0 0
									CHANNELS 3 Zrotation Yrotation Xrotation
									End Site
									{
										OFFSET -0.50715 -0.00000 0.50715
									}
								}
							}
						}
					}
				}
			}
		}
	}
}
MOTION
Frames: 9
Frame Time: .0083333
-1.7958 16.7604 -4.2244 -196.2780 23.0924 182.9690 0.0000 0.0000 0.0000 -6.3287 -14.1401 -39.9019 11.2949 18.0764 63.7356 0.4207 6.7095 -16.5232 0.6916 -5.3164 -14.8131 0.0000 0.0000 0.0000 32.9017 -2.9247 -1.7927 -0.3793 -3.9554 10.9513 0.0617 5.6020 5.7318 -4.2527 -12.4893 37.4856 -4.7092 8.5079 22.6544 -3.3038 11.0533 6.8290 -3.9135 5.9100 -5.0613 -11.2857 -18.0685 -9.6092 19.3021 -26.8220 8.9162 4.3993 -12.2201 8.5422 -0.0000 -0.0000 0.0000 -34.7366 22.5045 -49.4809 24.5404 -35.7305 -8.0199 -0.0000 0.0000 -49.4062 38.3599 -8.5349 -6.6993 -7.1250 0.0000 -0.0000 8.1425 19.2029 -5.0624 -0.0000 -0.0000 0.0000 39.6304 42.0520 12.0997 -71.1321 58.6112 -43.7361 0.0000 -0.0000 -16.2498 -37.1732 -22.1375 15.9474 7.1250 -0.0000 -0.0000 -9.3263 -56.7832 2.7096
-1.6238 16.8940 -4.3684 -196.0860 25.0740 182.9950 0.0000 0.0000 0.0000 -6.7233 -13.8787 -40.4413 10.3626 17.6088 60.6937 0.4308 6.2627 -16.2644 0.5298 -4.6642 -12.9533 0.0000 0.0000 0.0000 32.0367 -6.5741 -2.2415 -0.3928 -4.0245 11.1456 0.0643 7.5926 9.2796 -3.7572 -11.8301 35.1334 -4.5805 8.5130 22.3770 -3.0912 11.0621 6.8460 -3.7091 5.8912 -4.9299 -11.5485 -17.9071 -10.2776 19.1372 -26.5837 9.3927 4.3611 -12.0534 8.7876 -0.0000 -0.0000 0.0000 -34.6362 21.5199 -50.1331 24.4839 -35.6718 -7.9870 -0.0000 0.0000 -48.6999 37.1220 -7.6066 -5.7214 -7.1250 0.0000 -0.0000 7.4017 20.5082 -4.3756 -0.0000 -0.0000 0.0000 40.2549 43.3093 16.0795 -69.7447 58.3915 -42.5531 0.0000 -0.0000 -16.5349 -35.4480 -22.1296 15.0125 7.1250 -0.0000 -0.0000 -7.3182 -56.3580 2.0459
-1.4411 17.0197 -4.5231 -195.8000 26.9181 183.2020 0.0000 0.0000 0.0000 -7.0695 -13.3999 -40.9415 9.3554 17.0311 57.3113 0.3936 5.7977 -15.3941 0.7298 -5.4582 -15.2203 0.0000 0.0000 0.0000 31.6352 -9.0945 -1.7332 -0.3546 -3.8260 10.5875 -0.0197 7.7311 11.4329 -3.1670 -10.9606 32.1471 -3.8263 8.7240 22.0050 -3.4458 11.4366 6.5961 -4.5363 6.0603 -4.8010 -10.6594 -17.8880 -9.9974 19.3631 -26.8600 9.2550 4.2968 -12.1915 8.6525 0.0000 -0.0000 0.0000 -32.7210 19.7182 -49.3626 24.4409 -35.6270 -7.9619 -0.0000 0.0000 -48.6869 36.5148 -6.9215 -5.0985 -7.1250 0.0000 -0.0000 7.0573 21.4164 -4.0231 0.0000 -0.0000 0.0000 42.6033 43.3079 19.5479 -68.5414 58.1865 -41.5294 0.0000 -0.0000 -16.1758 -33.2848 -22.4471 14.0724 7.1250 -0.0000 -0.0000 -4.8084 -56.2141 1.3246
-1.2471 17.1332 -4.6796 -195.4380 28.7666 183.3020 0.0000 0.0000 0.0000 -7.3611 -12.6950 -41.0376 8.3073 16.3407 53.6621 0.3670 5.0767 -14.4431 1.2161 -6.9952 -19.7012 0.0000 0.0000 0.0000 31.0623 -11.9659 -1.7930 -0.4124 -4.1222 11.4206 -0.0893 8.1158 13.2217 -2.7940 -10.3539 30.1306 -3.5653 8.7379 21.5493 -3.3774 11.4801 6.5135 -4.5394 6.0614 -4.6319 -10.7736 -17.7034 -9.9571 19.5429 -26.7429 9.4146 4.3875 -12.1346 8.7269 0.0000 0.0000 0.0000 -32.0098 18.9045 -48.8793 24.6506 -35.8447 -8.0844 -0.0000 0.0000 -49.1470 36.2513 -6.7511 -4.9267 -7.1250 0.0000 -0.0000 6.8894 21.6518 -3.8889 0.0000 0.0000 0.0000 45.1543 44.1535 23.7781 -66.3033 57.7681 -39.6318 0.0000 -0.0000 -15.4971 -30.0575 -22.1126 12.2890 7.1250 -0.0000 -0.0000 -1.2925 -55.1225 0.3213
-1.0478 17.2329 -4.8380 -195.0660 30.5671 183.2030 0.0000 0.0000 0.0000 -7.6117 -12.0497 -40.5828 7.2632 15.5495 49.8627 0.3733 3.7381 -13.5283 1.5122 -7.7661 -22.0059 0.0000 0.0000 0.0000 31.0882 -12.5684 0.3506 -0.3686 -3.8995 10.7942 -0.1361 6.9443 12.6368 -1.4388 -7.5835 21.4560 -3.1935 8.8045 21.3207 -3.2999 11.6131 6.4538 -4.6493 6.1108 -4.5274 -10.9409 -17.6046 -9.8402 19.7830 -26.7819 9.5726 4.4769 -12.1538 8.8284 -0.0000 -0.0000 0.0000 -30.9005 17.6273 -48.4043 24.6172 -35.8102 -8.0649 -0.0000 0.0000 -49.1362 36.2392 -6.8783 -5.0164 -7.1250 0.0000 -0.0000 6.8653 21.4976 -3.8993 -0.0000 -0.0000 0.0000 48.1570 44.6258 28.1242 -63.8112 57.2428 -37.5298 0.0000 -0.0000 -14.9223 -26.7790 -21.9408 10.6790 7.1250 -0.0000 -0.0000 2.1766 -54.2524 -0.4951
-0.8590 17.3177 -4.9984 -194.7340 32.2392 183.1780 0.0000 0.0000 0.0000 -7.8735 -11.4626 -40.1643 6.2891 14.7028 46.1312 0.3627 2.1039 -12.3422 1.6020 -7.9825 -22.6610 0.0000 0.0000 0.0000 30.3578 -14.6693 0.6524 -0.4916 -4.4957 12.4757 -0.0959 7.9176 13.0898 -1.0034 -6.3743 17.8743 -2.7536 8.8371 20.9876 -3.2021 11.7218 6.4069 -4.7457 6.1503 -4.3477 -10.6489 -18.5575 -10.1669 19.5189 -26.3054 10.1613 4.4287 -11.6485 8.9552 -0.0000 -0.0000 0.0000 -29.8654 16.0595 -47.9270 24.5748 -35.7662 -8.0401 -0.0000 0.0000 -48.9784 36.6061 -7.2693 -5.3696 -7.1250 0.0000 -0.0000 7.0789 20.9804 -4.1059 -0.0000 -0.0000 0.0000 50.8294 44.2619 32.8226 -62.5093 56.9423 -36.4367 0.0000 -0.0000 -14.8991 -24.7356 -22.4715 9.9869 7.1250 -0.0000 -0.0000 4.4819 -54.4096 -1.0378
-0.6769 17.3882 -5.1544 -194.1650 33.8549 183.4320 0.0000 0.0000 0.0000 -7.7728 -10.9628 -39.8912 5.4062 13.8272 42.5495 0.3280 0.6518 -11.0733 1.6433 -8.0798 -22.9569 0.0000 0.0000 0.0000 30.2851 -15.0189 1.2222 -0.6499 -5.1567 14.3562 -0.0208 7.9088 11.6982 -0.9514 -6.2115 17.3993 -2.1317 8.6986 20.5100 -3.0983 11.6267 6.2597 -4.8681 6.0830 -4.1815 -10.4841 -18.6050 -10.0609 19.5662 -26.4017 10.1745 4.4135 -11.6876 8.9417 -0.0000 -0.0000 0.0000 -29.1500 14.8297 -47.9351 24.6817 -35.8769 -8.1027 -0.0000 0.0000 -48.5143 36.6336 -7.8931 -5.8303 -7.1250 0.0000 -0.0000 7.0188 20.2131 -4.1927 -0.0000 -0.0000 0.0000 53.5625 43.3892 37.0867 -61.8041 56.7718 -35.8462 0.0000 -0.0000 -14.9223 -22.5449 -23.1774 9.2794 7.1250 -0.0000 -0.0000 7.0123 -54.7138 -1.6794
-0.4768 17.4437 -5.3001 -193.1530 35.4605 183.7600 0.0000 0.0000 0.0000 -7.0921 -10.3786 -39.2104 4.5741 12.8875 38.9486 0.2770 -0.7029 -9.7174 1.6558 -8.1089 -23.0453 0.0000 0.0000 0.0000 30.7249 -14.9621 2.0846 -0.8532 -5.8910 16.4685 0.0525 7.4510 9.3593 -0.8342 -5.8267 16.2824 -1.4594 8.4639 20.3058 -2.8125 11.4089 6.1155 -4.8507 5.9488 -4.1880 -10.4640 -18.4284 -10.4267 19.3021 -26.1664 10.5852 4.3438 -11.5447 9.0617 0.0000 -0.0000 0.0000 -28.5070 13.8575 -48.3066 24.8423 -36.0424 -8.1969 -0.0000 0.0000 -47.8251 36.3900 -8.2942 -6.0686 -7.1250 0.0000 -0.0000 6.7953 19.7516 -4.1280 0.0000 -0.0000 0.0000 56.9506 42.5957 41.8298 -60.5250 56.4482 -34.7783 0.0000 -0.0000 -14.2380 -19.7353 -23.4696 8.1311 7.1250 -0.0000 -0.0000 10.0270 -54.4628 -2.3492
-0.2677 17.4788 -5.4465 -192.2020 37.0010 183.8530 0.0000 0.0000 0.0000 -6.5734 -9.6257 -38.1452 3.8057 11.8972 35.3694 0.1905 -1.9776 -7.7929 1.4604 -7.6378 -21.6191 0.0000 0.0000 0.0000 31.3808 -14.1573 3.1132 -1.1818 -6.8995 19.4179 0.1136 6.7680 5.8778 -0.4423 -4.2672 11.8295 -0.8116 8.3215 20.4243 -2.5638 11.3041 5.9370 -4.9468 5.8687 -4.3839 -10.5112 -18.2582 -10.6960 19.2422 -25.9528 10.9264 4.3497 -11.4051 9.1893 -0.0000 -0.0000 0.0000 -27.3385 12.5351 -48.1383 24.8734 -36.0744 -8.2153 -0.0000 0.0000 -47.3076 36.4799 -8.7031 -6.3840 -7.1250 0.0000 -0.0000 6.8054 19.2414 -4.2122 -0.0000 -0.0000 0.0000 60.6009 41.0829 45.9635 -59.0556 56.0530 -33.5564 0.0000 -0.0000 -13.1156 -17.1978 -23.7055 7.0931 7.1250 -0.0000 -0.0000 12.7092 -54.2144 -2.9140
